<svg width="98" height="60" viewBox="0 0 98 60" fill="none" xmlns="http://www.w3.org/2000/svg">
<path d="M0.787476 9.12817L17.9086 26.1324L46.6188 10.2012L78.1992 38.8161L97.2123 23.141L78.9783 45.0455L46.6086 15.7395L17.2903 32.0066L0.787476 9.12817Z" fill="white"/>
<path d="M20.9031 51.0774C21.3493 51.0774 21.6137 51.5515 21.6963 52.4996C21.68 52.6705 21.6552 52.7559 21.6219 52.7559L21.4981 52.5854H21.4735L21.3749 52.6138L21.5981 53.0688V53.1258H21.6478L21.6724 53.0974H21.697L21.6724 52.955L21.7467 52.8699C21.8124 52.9506 21.8453 53.0264 21.8453 53.0974V53.1258C21.8453 53.2394 21.7875 53.2964 21.6718 53.2965L21.7215 53.4102L21.895 53.3533L21.9196 53.3818V53.4102L21.895 53.4386V53.467L21.9447 53.6947H21.9196L21.8211 53.7231H21.7465V53.7515C21.7465 53.7896 21.8375 53.8371 22.0194 53.8938L22.515 56.9088C22.4199 56.923 22.2959 57.0178 22.1432 57.1933H22.1185L22.0937 57.1649H22.0689V57.2217C22.1556 57.3546 22.2382 57.4209 22.3167 57.4208V57.3924C22.3786 57.1271 22.4861 56.9943 22.6392 56.9942H22.7378L23.1841 57.0512C23.1841 57.0083 23.1097 56.9704 22.961 56.9374V56.9088L23.0104 56.8235C22.9846 56.7422 22.9322 56.6721 22.8616 56.6243H22.8123C22.779 56.7572 22.7461 56.8235 22.7137 56.8235H22.6643L22.6146 56.7667L23.1849 54.2921L23.2096 54.0644H23.2344C23.3251 54.1594 23.3995 54.2068 23.4576 54.2067L23.4822 54.1781V54.1497L23.2851 53.9222L23.6569 52.3293H23.7064L23.855 52.3863H23.8799V52.2725H23.7312L23.6815 52.2155V52.1871L23.7312 52.1302H23.855V52.1018L23.7312 51.9596V51.9026L23.8298 51.7035L23.9536 51.7319H24.1758L24.2008 51.7605H24.2255V51.7319C24.2255 51.6846 24.1345 51.6467 23.9526 51.6182V51.5614C23.9526 51.5235 24.027 51.5045 24.1758 51.5044V51.476L24.0023 51.4191C24.0023 51.3244 24.1841 51.2201 24.5476 51.1062C24.68 51.1252 24.7461 51.1916 24.7461 51.3053L24.9196 51.1346H24.9693L24.9939 51.1631H25.0186L24.9939 51.1915V51.2769C25.0598 51.2769 25.0925 51.2966 25.0925 51.3337L25.0428 51.3907L24.919 51.3053H24.8445L24.8199 51.3907L25.1172 51.476L25.1422 51.4476L25.1668 51.3623H25.1915C25.3321 51.3623 25.4891 51.6186 25.6625 52.1311L25.9107 53.4966H25.8856L25.737 53.468L25.2909 53.525V53.5534C25.4561 53.6293 25.5965 53.6673 25.7122 53.6671L25.985 53.582L26.7038 56.7677C26.8359 56.7677 26.9433 56.2367 27.0261 55.1747L27.795 51.7329H27.8447C27.8447 51.8089 27.919 51.8468 28.0677 51.8467C28.1502 51.8467 28.1998 51.8087 28.2163 51.7329C28.1917 51.6191 28.1422 51.5622 28.0677 51.5624L27.8447 51.6192C27.8447 51.3585 28.0348 51.1784 28.4149 51.0788H28.5134L28.5383 51.1072V51.1641L28.3648 51.3347H28.3896C28.5146 51.32 28.6295 51.2591 28.712 51.1641C28.9764 51.3205 29.1086 51.5291 29.1086 51.7899V51.9588C29.1086 52.7364 28.8358 53.9974 28.2903 55.7419C28.0425 57.093 27.836 58.1075 27.6706 58.7855L27.572 58.956C27.5306 58.956 27.4978 59.0319 27.4735 59.1837C27.2955 59.3923 27.0889 59.4966 26.8536 59.4966L26.8286 59.468L26.8536 59.4396V59.3542C26.6716 59.3069 26.5807 59.269 26.5808 59.2405L26.6058 59.2121H26.803C26.7947 59.0227 26.7699 58.9279 26.7286 58.9276L26.0583 59.013L26.0335 58.9846V58.8708L26.1321 58.7569H26.2559V58.7013C26.0244 58.6824 25.9088 58.6444 25.9089 58.5875V58.5306L25.9582 58.4738L25.9832 58.5022H26.0093V58.4738C25.7944 58.009 25.5709 57.241 25.339 56.1697L24.7688 53.6381V53.6098C24.7688 53.5766 24.8266 53.5387 24.9423 53.496V53.4106L24.8928 53.3537L24.7191 53.439L24.6698 53.3822C24.558 53.7046 24.3926 54.3873 24.1738 55.4302C24.0747 55.6766 23.9838 55.8568 23.9012 55.9706L23.926 56.3119C23.9281 56.6093 23.8322 56.8991 23.6533 57.1367C23.6533 58.0613 23.4385 58.7725 23.0087 59.2701C22.8598 59.384 22.6697 59.4409 22.4385 59.4408C21.9551 59.4408 21.6246 58.9383 21.4469 57.9332L21.4222 57.7341C21.5586 57.6584 21.6742 57.6205 21.769 57.6203C21.769 57.5588 21.6369 57.5114 21.3725 57.4782L21.3477 57.4498V57.3928L21.3974 57.3358H21.4469L21.8932 57.4212H21.9179V57.3928C21.7691 57.3121 21.6947 57.2078 21.6947 57.0799L21.8189 57.023V56.9664H21.6947L21.67 56.938H21.6454L21.5957 57.0232L21.6204 57.2795L21.5957 57.3078H21.5734C21.3421 57.3078 21.2264 57.0803 21.2263 56.6251L21.2513 56.5967H21.2759L21.4991 56.6537H21.5238L21.648 56.6251C21.5858 56.5305 21.4783 56.4831 21.3256 56.483L21.2016 56.5114C21.1359 56.4215 21.0863 56.2319 21.0528 55.9426L21.0776 55.914L21.1519 55.971L21.4494 55.8572L21.3751 55.7719V55.7435C21.2305 55.8194 21.1231 55.8574 21.0528 55.8572C21.024 55.8572 20.9827 55.6676 20.929 55.2883C20.7966 54.9851 20.7305 54.7101 20.7306 54.4634C20.7718 54.3308 20.8213 54.2644 20.8793 54.2643L20.8296 54.1505L20.6563 54.2075L20.5321 53.5248V53.411C20.5571 53.3353 20.623 53.2973 20.7306 53.2973V53.2687C20.5942 53.2687 20.4785 53.2023 20.3835 53.0696V53.0128C20.3835 52.9749 20.4083 52.9558 20.4578 52.9558L20.6563 53.0128L20.7306 52.9844V52.9558C20.5654 52.9558 20.458 52.88 20.4083 52.7283C20.3506 52.3824 20.2845 52.1738 20.21 52.1026L20.2596 52.0456H20.4828V52.0172L20.3842 51.619L20.2857 51.5336L20.3353 51.4768L20.5335 51.5336V51.5052L20.5585 51.4198L20.5335 51.3914V51.1923L20.9031 51.0774ZM20.7543 51.6462V51.6748C20.7543 51.7079 20.8205 51.7933 20.9528 51.931V51.9588L20.9031 52.044H20.928C21.0104 52.0204 21.0518 51.992 21.0518 51.9588V51.8449C20.9691 51.8449 20.9278 51.7785 20.928 51.6458L20.7543 51.6462ZM21.1263 52.9546C20.9441 53.1634 20.8536 53.2961 20.8536 53.3529H20.8783C21.0021 53.182 21.1095 53.0966 21.2006 53.0966H21.2503C21.2832 53.0966 21.2996 53.1346 21.2996 53.2103H21.4238L21.4735 53.0966C21.3535 53.0968 21.2378 53.0495 21.1265 52.9546H21.1263ZM21.2249 54.1769L21.3235 54.2909H21.3481V54.2063C21.3481 54.0926 21.3977 54.0357 21.4969 54.0356L21.4723 54.0072V53.9786C21.349 54.0167 21.2667 54.0831 21.2255 54.1777L21.2249 54.1769ZM21.448 55.2863C21.4494 55.3441 21.4391 55.4015 21.4178 55.4553C21.3966 55.509 21.3648 55.5579 21.3242 55.5992V55.6278C21.4193 55.6278 21.5349 55.5139 21.6712 55.2863H21.448ZM21.5466 56.1681H21.5734L21.7966 56.1112H21.9455V56.0544C21.9287 55.9974 21.8792 55.969 21.7966 55.969C21.6307 56.0219 21.5478 56.0885 21.5478 56.1689L21.5466 56.1681ZM24.4965 53.0108H24.5711C24.7363 52.9872 24.8189 52.9492 24.8191 52.8971V52.8687L24.6951 52.8401C24.5636 52.8882 24.4979 52.9454 24.4977 53.0116L24.4965 53.0108ZM25.8356 56.7369H26.0834V56.5946L26.0337 56.5378C25.96 56.5716 25.8943 56.6383 25.8368 56.7379L25.8356 56.7369ZM27.3229 58.3583L27.3475 58.4434C27.463 58.4434 27.546 58.3582 27.5953 58.1871H27.5707C27.4062 58.2022 27.324 58.2596 27.324 58.3592L27.3229 58.3583ZM28.6368 51.3893L28.5872 51.6456L28.8103 51.7879C28.8764 51.7595 28.9089 51.7309 28.9089 51.7025C28.7851 51.6313 28.7107 51.5649 28.6857 51.5034L28.7108 51.475V51.4466L28.6368 51.3893Z" fill="white"/>
<path d="M32.8086 52.1794H32.8305C33.3936 52.1794 33.8158 52.7659 34.0972 53.9388C34.5862 55.5028 35.016 56.761 35.3863 57.7132C35.3863 57.7598 35.3345 57.8363 35.2308 57.9425V57.9681L35.4082 57.917H35.4301C35.4783 57.917 35.508 58.019 35.5192 58.223C35.6525 58.5122 35.7191 58.7757 35.7191 59.0136L35.6525 59.0646L35.5192 58.9116H35.4969V58.9881C35.6452 59.1114 35.7193 59.2049 35.7191 59.2687C35.5375 59.5407 35.33 59.6767 35.0967 59.6766C34.7525 59.6766 34.434 59.1751 34.1414 58.1721L34.0745 57.8405L33.9633 57.866L32.2744 57.8405H31.5843C31.4398 57.9342 31.2694 58.4018 31.0733 59.243C30.9361 59.5493 30.7731 59.7023 30.5844 59.7022H30.5178C30.1879 59.7022 29.9579 59.4811 29.8278 59.039V58.9381C29.8278 58.7045 30.0797 57.982 30.5836 56.7704C31.1171 55.0579 31.4875 54.0124 31.6947 53.634H32.0496C32.0496 53.5871 31.9384 53.5445 31.716 53.5062V53.4808C31.716 52.8987 31.9975 52.4737 32.5604 52.2057L32.8086 52.1794ZM32.742 53.7858C32.65 54.2109 32.5463 54.4234 32.4309 54.4234L32.3865 54.5764L32.5196 54.449L32.5421 54.4744V54.4999C32.5421 54.6062 32.468 54.6912 32.3197 54.7548L32.342 54.7804V55.0099C32.342 55.2268 32.1864 55.7538 31.8751 56.591L31.8529 56.7186H33.698C33.698 56.6462 33.535 56.1446 33.209 55.2139L33.1647 54.908V54.6274C33.0162 54.5382 32.942 54.4277 32.9423 54.2958V54.2193L32.9644 54.092C32.8757 54.092 32.809 53.9899 32.7645 53.7858H32.742ZM32.0532 57.0756C32.1086 57.1265 32.1604 57.1521 32.2085 57.1521C32.2085 57.0543 32.253 56.9608 32.342 56.8716H32.2982C32.1939 56.8716 32.1122 56.9396 32.0532 57.0756V57.0756Z" fill="white"/>
<path d="M37.1252 52.1536C37.629 52.2386 37.8809 52.4511 37.8809 52.7911C38.3327 53.4031 38.9476 54.4402 39.7254 55.9023C40.007 56.3782 40.2811 56.8032 40.5477 57.1773V53.7601C40.5477 52.8082 40.5922 52.3321 40.6814 52.332C40.7996 52.2301 40.9108 52.1792 41.0147 52.1792H41.1257C41.4441 52.1792 41.6515 52.3662 41.7481 52.7401L41.6815 53.4031L41.7927 58.0443C41.7927 58.8052 41.7259 59.2557 41.5924 59.3958C41.4073 59.5999 41.2073 59.702 40.9923 59.702C40.696 59.702 40.4146 59.4809 40.1479 59.0388C39.6182 58.2059 38.9884 57.0583 38.2586 55.5962V55.5197H38.3254V55.4942C38.1622 55.4942 37.9474 55.2307 37.681 54.7037H37.6587L37.5918 55.3667L37.703 58.0443V58.1973C37.703 58.9327 37.5698 59.4087 37.3032 59.6255L37.1029 59.6763H36.9474C36.6438 59.6763 36.4734 59.4298 36.4362 58.9368V58.8603L36.5253 57.5343C36.4657 56.5617 36.436 55.4056 36.4362 54.0661L36.4584 52.6636C36.6696 52.4893 36.8326 52.3278 36.9474 52.1792L37.1252 52.1536ZM39.059 55.5197V55.5962L39.1034 55.6472C39.1144 55.5623 39.1365 55.5197 39.17 55.5197H39.2144L39.3699 55.5707H39.3924V55.5453C39.3179 55.5453 39.2662 55.4518 39.2365 55.2648L39.059 55.5197Z" fill="white"/>
<path d="M43.9364 52.2812L45.5588 52.3834L45.8921 52.3579L45.9146 52.3834L45.8921 52.5109V52.5874C45.8921 52.9615 46.033 53.1485 46.3146 53.1485L46.3367 53.1739V53.1994L46.2701 53.2504H46.2034L45.8486 53.1994C45.7598 53.2078 45.7151 53.2335 45.7151 53.2761C45.8783 53.3141 45.9598 53.3482 45.9598 53.3778V53.531H46.0932C46.1041 53.446 46.1263 53.4034 46.1597 53.4034H46.2042C46.2523 53.4034 46.4154 53.5224 46.6933 53.7604H46.7152C46.8933 53.6883 46.9822 53.5607 46.982 53.3778V53.3525C46.8227 53.4206 46.6745 53.4546 46.5374 53.4545H46.5153C46.4004 53.4545 46.3264 53.412 46.2931 53.3269C46.6377 53.004 46.8378 52.8425 46.8932 52.8423L47.2933 53.3013C47.3867 53.4274 47.4408 53.5783 47.4488 53.735C47.5746 53.735 47.708 54.0411 47.849 54.6531C47.9228 55.0737 47.9598 55.4137 47.9602 55.6732L47.4709 55.8772C47.4709 55.9113 47.4932 55.9283 47.5377 55.9283L47.7152 55.8518H47.7595L47.8039 55.9028V56.0558C47.7596 56.1409 47.7077 56.1834 47.6483 56.1834V56.2343L47.7152 56.2599L47.9373 56.1834V56.2343L47.8486 56.3618C47.9078 56.3702 47.9373 56.3957 47.9373 56.4383V56.5657C47.9373 57.7135 47.5076 58.572 46.6482 59.1414C46.3112 59.3795 45.5259 59.4986 44.2923 59.4984C44.0959 59.5496 43.8663 59.5751 43.6034 59.5749H43.3582C42.8842 59.5749 42.6472 59.4219 42.6471 59.1158C42.6173 59.1158 42.5879 59.0138 42.5582 58.81L42.5806 58.7844H42.6027C42.625 58.8524 42.6471 58.8865 42.6694 58.8865H42.7137C42.7435 58.8865 42.7583 58.8609 42.7583 58.81C42.7508 58.6568 42.7362 58.5803 42.7137 58.5803C42.6546 58.5975 42.625 58.6314 42.625 58.6824H42.5806L42.5359 58.5038V58.453C42.5359 58.3508 42.5804 58.1383 42.6694 57.8154C42.6694 57.7643 42.6398 57.7387 42.5806 57.7387V57.7134L42.6471 57.6113H42.5806V57.5603C42.6027 57.3903 42.6694 57.3054 42.7805 57.3054H42.8028C42.8028 57.5093 42.8917 57.6113 43.0696 57.6113H43.0916V57.5859C42.9878 57.4329 42.936 57.3224 42.9361 57.2543C42.9361 57.2032 42.9878 57.1778 43.0916 57.1778L43.0471 57.1267L42.625 57.2797H42.6027L42.5582 57.2289V57.1524C42.5582 57.1183 42.6173 57.0932 42.7356 57.0759V57.0502L42.5582 56.9738L42.5806 56.2851L42.5582 53.1996V52.8936L42.7356 52.6641L42.9355 52.7152V52.6387C42.9355 52.6004 42.8837 52.5664 42.78 52.5366V52.5111C43.1212 52.358 43.5066 52.2814 43.9364 52.2812ZM42.9586 59.0647L42.9142 59.2177H42.9363L43.2028 59.2431L43.2474 59.1668H43.2253L43.0918 59.1921C43.0177 59.1625 42.9807 59.12 42.9807 59.0647H42.9586ZM43.136 56.1576L43.1581 56.1832V56.2084L43.4248 56.1832L43.6249 56.2341V56.2084C43.6543 56.1406 43.6914 56.1065 43.7361 56.1065L43.6914 56.0556C43.5018 56.0575 43.314 56.0922 43.1364 56.1584L43.136 56.1576ZM43.136 59.0136V59.0647C43.3395 59.0647 43.5098 59.1238 43.647 59.2421H43.6695C43.6989 59.2421 43.7138 59.1997 43.7138 59.1146L43.7361 59.0893H43.7582C43.8138 59.1233 43.8805 59.2252 43.9583 59.3951H44.0693L44.0472 59.2678L44.2247 59.0893C43.9089 59.0356 43.5891 59.01 43.2689 59.0127L43.136 59.0136ZM43.2693 57.0246V57.0501L43.4248 57.1265V57.1776H43.3136C43.2249 57.1863 43.1806 57.2118 43.1806 57.2541V57.3052C43.5212 57.3052 43.6915 57.2287 43.6914 57.0757V57.0501L43.5358 57.0246H43.2693ZM43.2693 58.3761V58.4017C43.2693 58.5547 43.3284 58.6312 43.4467 58.6312H43.4911C43.4911 58.5293 43.4244 58.4443 43.2912 58.3761H43.2693ZM44.6249 53.4799L43.8473 53.4545L43.7138 53.4799C43.8175 53.6968 43.8694 53.9773 43.8694 54.3215V54.5256C43.8694 54.8827 43.8175 55.1292 43.7138 55.2651C43.8026 55.3329 43.8473 55.4181 43.8473 55.52V55.6221C43.8467 55.7339 43.8074 55.842 43.7361 55.9281C43.8248 55.9622 43.8694 56.03 43.8694 56.1321C43.8694 56.2504 43.8323 56.3096 43.7582 56.3096C43.8165 56.4733 43.8466 56.6458 43.8473 56.8196V56.9982C43.8447 57.2219 43.8147 57.4445 43.7582 57.661C43.8323 57.7079 43.8694 57.759 43.8694 57.8142L43.8473 58.2479L43.9138 58.4009L44.1803 58.3753H44.5805C44.7434 58.3753 44.8841 58.4093 45.0028 58.4774L44.9807 58.5539C45.0028 58.6558 45.0548 58.7069 45.1363 58.7069H45.1585L45.2029 58.6558L45.1138 58.5539V58.5044L45.1363 58.479V58.4535L45.2705 58.5044V58.479L45.2481 58.3514L45.5371 58.326C45.6112 58.3391 45.6483 58.3646 45.6483 58.4025V58.4279C45.6483 58.462 45.626 58.479 45.5814 58.479L45.4704 58.4279V58.479L45.7595 58.6065C45.778 58.4366 45.8074 58.3514 45.8482 58.3514H46.0256V58.3004C46.1218 58.258 46.1739 58.2156 46.1811 58.173C46.0629 58.173 46.0037 58.1475 46.0037 58.0965V58.0707L46.026 58.0453V58.0196L46.0481 58.0453H46.0704L46.2259 58.0196C46.2259 57.9772 46.1963 57.9517 46.1372 57.9431V57.8923C46.4921 57.3948 46.6695 56.8083 46.6695 56.1327L46.6472 56.0306L46.6695 56.0052L46.692 56.0306H46.7807L46.8473 55.9541L46.6699 55.9287V55.8776H46.8033C46.729 55.8011 46.6623 55.5801 46.6032 55.2146L46.7588 55.1635V55.0616C46.6105 55.0064 46.5364 54.9214 46.5364 54.8067C46.5735 54.6707 46.6105 54.6027 46.6476 54.6027C46.7182 54.6707 46.7773 54.7047 46.825 54.7046V54.6792C46.825 54.577 46.7734 54.5262 46.6695 54.5262H46.6472L46.4917 54.577C46.3997 54.2584 46.1923 53.9779 45.8695 53.7354C45.6025 53.5824 45.4025 53.5059 45.2695 53.5059L45.1804 53.5316H45.1136C45.0693 53.5316 45.0472 53.4721 45.0472 53.3531C44.9332 53.4376 44.7926 53.4799 44.6253 53.4799H44.6249ZM44.1139 58.9628L44.225 58.9882L44.3138 58.9628H44.3362L44.3806 59.0136V59.0903L44.3583 59.1156V59.1412L44.6696 59.0647V59.0391C44.5658 59.0391 44.5139 58.9881 44.5139 58.8863L44.4027 58.8098C44.3109 58.8098 44.2148 58.8608 44.1143 58.9628H44.1139ZM44.1584 52.8934V52.9448H44.2256C44.3176 52.9448 44.4066 52.8768 44.4924 52.7408H44.4478L44.1584 52.8934ZM44.5805 58.7077H44.6028L44.714 58.6822C44.8102 58.6822 44.8768 58.8097 44.9139 59.0647H44.9364L44.9807 59.0136H45.1138L45.1363 59.0391L45.2029 59.0136V58.9882C45.2029 58.9628 45.0991 58.8863 44.8916 58.7587V58.7331L44.9139 58.6057L44.8027 58.5801H44.6473C44.6143 58.5801 44.5921 58.6226 44.5805 58.7077ZM45.6475 59.2177L45.5363 59.1921L45.514 59.2177L45.5584 59.3196C45.7807 59.29 45.8919 59.2391 45.8917 59.1668V59.1156C45.8033 59.1838 45.722 59.2178 45.6479 59.2177H45.6475ZM45.6027 58.8098V58.8352L46.1585 58.7842L46.1141 58.6822C45.7736 58.7035 45.6032 58.746 45.6031 58.8098H45.6027ZM46.9808 57.7649H47.0251C47.1509 57.7649 47.2398 57.7139 47.2917 57.6119H47.2471C47.0735 57.6669 46.9849 57.7176 46.9812 57.7641L46.9808 57.7649Z" fill="white"/>
<path d="M52.5478 52.2556C53.0332 52.2771 53.3148 52.3706 53.3926 52.5362V52.5616L53.3481 52.6127L53.2371 52.5362H53.1927V52.5872C53.2294 52.8593 53.3182 52.9953 53.4592 52.9953V53.0208C53.3998 53.3267 53.1628 53.4797 52.7481 53.4797L51.859 53.4543V53.4032C51.9181 53.4032 51.9477 53.3693 51.9477 53.3011H51.9258C51.7832 53.4026 51.612 53.4562 51.4369 53.4543H51.3922L50.3699 53.3776C50.118 53.3776 49.992 53.4371 49.992 53.5562L50.0366 54.1684C50.0366 54.3213 49.9774 54.3978 49.8591 54.3978C49.9482 54.5763 49.9927 54.7463 49.9926 54.9079C49.9926 55.0352 49.9185 55.2647 49.7704 55.5963H49.7927C49.8889 55.5963 49.9778 55.4603 50.0594 55.1882L50.0815 55.1628H50.215C50.3446 55.1628 50.5594 55.2138 50.8595 55.3158L51.0596 55.2649V55.2907L51.0373 55.3672L51.2819 55.5713V55.6223L51.2595 55.6478V55.6732L51.2819 55.6988H51.3263C51.3526 55.6988 51.3897 55.6308 51.4375 55.4948H51.4807V55.4682C51.3582 55.4173 51.2471 55.3918 51.1473 55.3917V55.3408C51.5472 55.2048 51.8955 55.1367 52.1922 55.1367C52.648 55.1367 52.9665 55.2558 53.1478 55.4938C53.205 55.5762 53.2361 55.674 53.2369 55.7743V55.7998C53.2369 56.1399 53.0442 56.3099 52.6588 56.3098H52.4146L52.37 56.2589V56.2333C52.37 56.1439 52.4366 56.0249 52.5699 55.8762H52.5256C52.3329 55.9188 52.2365 56.0039 52.2365 56.1314L52.259 56.2841V56.3098L51.7922 56.2589L50.4807 56.3098H50.0586L50.0143 56.3608V56.5919L49.9252 56.6938L49.7696 56.5408H49.7028C49.6289 56.6132 49.5919 56.6897 49.5918 56.7703L49.6364 56.8214V56.8468C49.4806 56.9148 49.2805 56.9658 49.036 57L48.7249 56.9489V56.9233L48.7695 56.643L48.7029 56.2605V56.1073L48.7249 56.0819V56.0564L48.8805 56.0819H48.9249C48.9881 56.0819 49.0629 55.9204 49.1472 55.5973L49.2807 55.5719L49.5254 55.6738C49.5845 55.5845 49.6141 55.5082 49.6141 55.4443V55.3678C49.6141 55.2019 49.5252 55.0829 49.3473 55.0108H49.3251V55.0344C49.3807 55.0388 49.425 55.0729 49.4585 55.1365C49.4585 55.1707 49.4142 55.1874 49.3251 55.1874V55.213L49.4363 55.3406V55.366C49.3362 55.366 49.151 55.5531 48.8805 55.9271H48.8586L48.7031 55.8506L48.7251 55.5446V54.9071L48.7031 53.4789C48.7106 53.4281 48.7845 53.3601 48.925 53.2751V53.1984L48.7251 53.021L48.7697 52.9699H48.8586L49.1031 53.072L49.1922 53.021C49.1922 52.9786 49.1474 52.9273 49.0585 52.868L49.0362 52.8934H48.8363C48.7993 52.8934 48.7771 52.8594 48.7697 52.7915C48.8957 52.4515 49.1477 52.2814 49.5256 52.2813H49.8142C50.0291 52.2813 50.2884 52.3238 50.5921 52.4088C50.7252 52.325 50.8794 52.2808 51.0367 52.2813C51.1033 52.2813 51.2292 52.3238 51.4144 52.4088C51.5034 52.4088 51.5479 52.3748 51.5479 52.3069H51.5923C51.6404 52.4429 51.7145 52.5109 51.8146 52.5109H51.8813L51.9258 52.4599L51.8146 52.3834V52.3323C52.096 52.2805 52.3404 52.255 52.5478 52.2556ZM49.8585 56.8458H49.9697L50.0145 56.8969V57.4069C50.0145 57.7768 49.97 57.9978 49.881 58.0699C49.9399 58.274 50.051 58.376 50.2144 58.3759C50.6364 58.3759 50.9327 58.4184 51.1033 58.5034C51.1219 58.4356 51.1883 58.4015 51.3032 58.4015H51.3922L51.747 58.4526V58.4269L51.8138 58.325H52.4806C53.0768 58.325 53.4472 58.4696 53.5917 58.7587L53.614 58.8863C53.614 59.3622 53.3325 59.6002 52.7694 59.6002H52.4583C52.1322 59.6002 51.71 59.5492 51.1915 59.4472C50.8952 59.5323 50.5885 59.5752 50.2802 59.5747H49.8802C49.1543 59.5747 48.7913 59.4302 48.7912 59.141C48.7319 58.8095 48.7023 58.546 48.7023 58.3505V58.0188C48.7036 57.785 48.7411 57.5528 48.8135 57.3304L48.7023 57.2029V57.0755L48.7243 57.0499V57.0244C48.7911 57.0585 48.8875 57.0755 49.0134 57.0755H49.2357C49.5434 57.0755 49.751 56.9989 49.8585 56.8458V56.8458ZM49.0142 52.5362H49.036L49.5918 52.5616L49.7028 52.5362V52.5109L49.303 52.4088C49.1697 52.4087 49.0734 52.4511 49.0142 52.5362V52.5362ZM49.1031 58.1464H49.1253C49.2882 58.1464 49.3993 58.0018 49.4587 57.7127C49.2215 57.7129 49.1029 57.8575 49.1031 58.1464V58.1464ZM49.1474 53.3524V53.4543C49.1474 53.4969 49.2141 53.5393 49.3475 53.5816L49.3253 53.3524L49.3032 53.3776H49.2809L49.1474 53.3524ZM49.4587 55.8768H49.4144V55.9025L49.3921 56.2847L49.5474 56.3614V56.2339L49.5699 56.2082V56.183L49.7921 56.2339V56.2082L49.7475 56.0809L49.7698 56.0555H49.7921L50.0366 56.0809C50.1032 56.047 50.1402 56.013 50.1476 55.979V55.9279H49.9701C49.911 55.8981 49.8814 55.8385 49.8814 55.7493C49.9997 55.7325 50.0588 55.707 50.0588 55.6728L49.9477 55.5963C49.707 55.7833 49.544 55.8768 49.4587 55.8768V55.8768ZM49.7698 55.8514L49.7921 55.8768V55.979C49.7771 56.0298 49.733 56.0555 49.6586 56.0555H49.4812V56.0044C49.5121 55.9563 49.5549 55.9169 49.6055 55.8901C49.656 55.8633 49.7126 55.85 49.7698 55.8514V55.8514ZM49.8585 58.784V58.8096L49.9033 58.8861V59.0389L49.8142 59.1666L49.8365 59.1919C49.881 59.1919 49.9699 59.0645 50.1032 58.8096L49.9258 58.7585L49.8585 58.784ZM50.726 52.8678V52.8932C50.7851 52.8932 50.8222 52.9612 50.8372 53.0973C50.9407 53.0973 51.0298 53.0462 51.1037 52.9443V52.9186H51.0814V52.9697H51.0371C51.0371 52.8848 51.0148 52.8423 50.9703 52.8421H50.8372L50.726 52.8678ZM51.4148 52.4851L51.3705 52.5616V52.5872L51.6595 52.6637L51.7038 52.6127V52.5872L51.4148 52.4851ZM51.3705 55.7749V55.8003C51.4705 55.8003 51.5296 55.8344 51.5479 55.9025L51.5033 56.1319V56.1582H51.5256C51.6739 56.1199 51.7479 56.0434 51.7478 55.9287H51.7255L51.4369 55.7501L51.3705 55.7749ZM52.326 59.1659C52.4074 59.3187 52.4665 59.4037 52.5035 59.4208H52.5701V59.3951L52.5258 59.3186V59.1412H52.4366L52.326 59.1659Z" fill="white"/>
<path d="M55.8811 52.1282C57.4293 52.1282 58.348 52.2897 58.637 52.6127C59.1259 53.0252 59.3704 53.4927 59.3704 54.0152V54.1938C59.3704 54.8399 59.1556 55.3414 58.7259 55.6984C58.7074 55.7834 58.6849 55.8258 58.6591 55.8258H58.6372L58.4817 55.5963C58.3518 55.9532 58.2185 56.1318 58.0816 56.1319L58.0148 56.0298H57.9704C57.9406 56.0298 57.9109 56.0978 57.8813 56.2338C58.5447 56.9137 58.9521 57.4832 59.1037 57.9423L59.1259 58.0188V58.0954L58.9921 58.2478C58.9921 58.2945 59.0959 58.3369 59.3036 58.3752L59.3479 58.4519V58.5284H59.2811V58.5538C59.4293 58.7621 59.5035 58.9321 59.5035 59.0638V59.0894C59.5035 59.2168 59.3775 59.3018 59.1255 59.3443L58.8811 59.4717L58.8365 59.2933H58.7255L58.57 59.5227C58.4517 59.4635 58.3925 59.421 58.3925 59.3952L58.4369 59.3187C58.2444 59.2004 58.1481 59.09 58.1481 58.9873L58.1702 58.8854C57.9626 58.8174 57.8589 58.6644 57.8591 58.4262V58.3752C57.8591 58.2569 57.9332 58.1549 58.0814 58.0692H58.0146L57.7256 58.1713C57.7256 58.1202 57.533 57.7972 57.1479 57.2022V57.1513L57.17 57.1257H57.1923L57.3258 57.1513H57.3479V57.0748C57.2849 57.0748 57.033 56.9048 56.5922 56.5646C56.3699 56.4244 56.1477 56.348 55.9254 56.3354C55.6735 56.3354 55.5476 56.3863 55.5477 56.4881L55.5033 56.8197L55.5477 58.0692V58.1968H55.5252L55.4365 58.1713C55.3771 58.1713 55.3253 58.2478 55.281 58.4008L55.303 58.5027C55.0958 58.5752 54.9775 58.6347 54.9482 58.6813L54.9705 58.7068V58.7322C55.0444 58.7026 55.0816 58.6601 55.0816 58.6049H55.1037L55.3259 58.8854C55.4594 58.8895 55.5258 58.9152 55.5258 58.9619C55.4371 59.0427 55.3927 59.1532 55.3927 59.2933C55.2373 59.2933 55.0669 59.3783 54.8815 59.5484L54.726 59.5992C54.6077 59.5781 54.5486 59.5442 54.5486 59.4973C54.5486 59.4504 54.6006 59.4167 54.7041 59.3952V59.3187H54.682L54.5046 59.4717C54.3268 59.3656 54.2379 59.1532 54.2381 58.8343L54.6381 58.6049V58.5792L54.5714 58.5538C54.4566 58.588 54.3602 58.6645 54.2824 58.7833C54.2526 58.7833 54.2306 58.7241 54.2156 58.6049L54.2381 58.2222L54.2824 58.1713L54.4823 58.2478L54.549 58.2222V58.1457C54.549 58.0991 54.4823 58.0565 54.349 58.0182L54.2603 58.0438L54.2156 57.8908C54.2306 57.7209 54.2526 57.6359 54.2824 57.6359L54.2381 57.2787V56.4881C54.2381 56.4586 54.3047 56.4246 54.438 56.3862C54.438 56.3567 54.3715 56.331 54.2381 56.3097L54.2603 56.1323L54.2156 54.5258L54.2603 54.3983L54.6824 54.5002V54.4747L54.6381 54.2961H54.6158L54.549 54.3472L54.5046 54.2707V54.2459L54.7493 54.0418C54.6159 54.0418 54.5491 53.9568 54.549 53.7867H54.5271C54.4637 53.8366 54.3853 53.8635 54.3047 53.8632V53.9397C54.4083 54.0375 54.4601 54.1225 54.4602 54.1948C54.4602 54.2202 54.4082 54.2628 54.3047 54.3224C54.2676 54.3224 54.2379 54.1863 54.2156 53.9143C54.2156 53.7867 54.2526 53.6847 54.3268 53.6083C54.2526 53.4723 54.2156 53.3533 54.2156 53.2513V53.0983C54.2785 52.4862 54.5453 52.1803 55.016 52.1804C55.2037 52.1457 55.492 52.1283 55.8811 52.1282ZM54.3039 57.6109L54.4151 57.7382L54.4595 57.6874C54.4296 57.6109 54.4 57.5684 54.3707 57.5598H54.3483L54.3039 57.6109ZM54.5482 55.1117C54.5667 55.1969 54.5892 55.2393 54.615 55.2393L54.8149 55.0098L54.6375 54.9844C54.5957 54.9885 54.5659 55.0311 54.5474 55.1117H54.5482ZM54.7928 58.7588C54.7928 58.8771 54.7188 58.9362 54.5706 58.9362V59.0382H54.5927L54.8149 58.9619L54.8597 59.0894C54.9041 59.0723 54.9262 59.0213 54.9261 58.9362C54.9261 58.8683 54.889 58.8092 54.8149 58.7588H54.7928ZM54.6373 54.678V54.7034L54.6594 54.678H54.6816L55.1262 54.6524C55.0669 54.5844 55.0372 54.5253 55.0371 54.4749H54.9927C54.7552 54.547 54.6365 54.6148 54.6365 54.6784L54.6373 54.678ZM54.7928 53.7853C54.8261 53.8875 54.8705 53.947 54.9261 53.964C54.9261 53.8026 54.9928 53.641 55.1262 53.4794H55.0818C54.9515 53.4796 54.8551 53.5818 54.7928 53.7857V53.7853ZM54.9032 56.7693V56.7949C54.9624 56.9263 55.0215 57.0113 55.0807 57.0498L55.1027 57.0244H55.125L55.0807 56.8714V56.7693H54.9032ZM55.0588 59.09L55.281 59.1665H55.303V59.0388L55.2587 58.9879H55.2143C55.1366 58.9879 55.0846 59.0218 55.0588 59.09ZM55.5252 53.3784L55.5477 53.506C55.5364 53.7909 55.4993 54.012 55.4365 54.1692C55.4809 54.1692 55.5033 54.2031 55.5033 54.2711L55.4809 54.5516L55.5252 54.7046C55.4514 54.7259 55.4144 54.7514 55.4142 54.7811C55.5033 55.0488 55.5478 55.2358 55.5477 55.3422H55.57L56.7257 55.3165C56.9291 55.3165 57.0847 55.3845 57.1923 55.5206C57.1182 55.6397 57.0366 55.6992 56.9476 55.6992H56.8812L56.8589 55.6736H56.8368V55.7244C56.8517 56.0304 56.8886 56.1834 56.9476 56.1836H57.0145C57.1221 56.1836 57.1811 56.1325 57.1919 56.0304H57.1476L57.0364 56.1325L56.992 56.0814V56.005H57.0807V55.7499C57.0807 55.7159 57.1032 55.699 57.1476 55.699C57.229 55.699 57.2809 55.801 57.3031 56.005L57.6365 56.0304C57.7142 56.0304 57.7733 55.9879 57.8139 55.903C57.6662 55.9022 57.5923 55.8427 57.5923 55.7244V55.6479C57.4997 55.7331 57.4255 55.7756 57.3699 55.7755C57.3033 55.7414 57.2662 55.7075 57.2589 55.6734V55.6225L57.3033 55.5714H57.3699L57.5698 55.6225V55.5969L57.5032 55.5204H57.2591V55.495L57.281 55.4185H57.2591L57.1923 55.342V55.3163L57.2367 55.2655L57.5925 55.3674C57.6592 55.3333 57.696 55.2994 57.7035 55.2655H57.5261V55.1888L57.8151 55.0358H57.8372L57.9484 55.0614V55.0344C57.9928 54.5246 58.0595 54.1763 58.1485 53.9896C57.9706 53.8961 57.8817 53.7687 57.8815 53.6071C57.7002 53.4757 57.1744 53.3567 56.3044 53.2501V53.1482H56.2825C56.2817 53.2374 56.0293 53.3142 55.5252 53.3784ZM57.5257 53.3276L57.7924 53.3532L57.8591 53.3276C57.8516 53.2767 57.7924 53.2512 57.6816 53.2511H57.5923L57.5257 53.3276ZM57.7481 52.8176L57.7035 52.8941V52.9195C57.7591 52.9195 57.8406 52.962 57.948 53.047C57.9707 53.0398 57.991 53.0264 58.0067 53.0085C58.0224 52.9905 58.0329 52.9686 58.0371 52.9451L57.7481 52.8176ZM57.9703 53.2767V53.302C58.2219 53.3658 58.3479 53.4679 58.348 53.6081C58.4889 53.5231 58.5846 53.4806 58.637 53.4806L58.5035 53.0727C58.4407 53.1402 58.2629 53.208 57.9703 53.2759V53.2767ZM58.7482 55.0873L58.8369 55.189H58.8594L58.8369 55.1636V55.1381C58.8369 55.0447 58.9406 54.9682 59.148 54.9087L59.1705 54.8832V54.857H59.148C59.026 54.857 58.8928 54.9335 58.7482 55.0865V55.0873Z" fill="white"/>
<path d="M62.9137 51.134H63.3096C64.9335 51.134 66.016 51.7883 66.5572 53.0969V53.1823L66.4587 53.296C66.4587 53.3486 66.5413 53.4054 66.7065 53.4666C66.8717 53.9835 66.9543 54.5618 66.9543 55.2015C66.9543 56.7046 66.5907 57.8612 65.8635 58.6714C65.69 58.8423 65.566 58.9277 65.4916 58.9277C65.1821 58.8328 64.9258 58.7854 64.7228 58.7856L64.6242 58.8139L64.6492 58.8423V58.8993L64.5996 58.9847V59.0131L64.6492 59.0698H64.773V59.0984C64.6285 59.383 64.2732 59.5252 63.7073 59.5251C62.5507 59.416 61.9143 59.2642 61.7983 59.0698V59.0131L61.8229 58.9277H61.7983C61.5793 58.9277 61.2405 58.6717 60.7818 58.1598C60.3023 57.3775 60.0627 56.4957 60.063 55.5144V55.2299C60.063 53.7745 60.4926 52.6179 61.3519 51.76C61.7691 51.3999 62.2237 51.2197 62.7156 51.2194L62.7403 51.248V51.2764C62.7403 51.3665 62.6745 51.4708 62.5431 51.5893V51.646H62.5678C62.7495 51.646 62.8403 51.4944 62.8402 51.191L62.9137 51.134ZM60.2365 54.8037L60.5835 54.9458L60.6083 54.9174V54.8888C60.5547 54.8888 60.4638 54.8224 60.3356 54.6897H60.3108C60.286 54.6897 60.2612 54.7277 60.2365 54.8037ZM61.0054 55.0312C61.0054 55.0738 60.9725 55.1211 60.9068 55.1733L60.8821 55.2587L60.9068 55.2871H61.1796L61.2293 55.2303L61.0308 55.0312H61.0054ZM61.5012 55.3157C61.5012 55.7281 61.5589 56.1737 61.6745 56.6526L61.6498 56.6809H61.4761C61.3027 56.6809 61.1125 56.7947 60.9058 57.0222H60.9308L61.724 56.7379L61.9225 57.2213V57.2499L61.8728 57.4491C62.6701 57.9988 63.3972 58.2738 64.0542 58.2739C64.0542 58.0796 64.1947 57.9657 64.4755 57.9325L64.5741 57.9894C64.5741 57.7856 64.7641 57.558 65.1441 57.3067L65.1194 57.2783V57.193C65.1194 56.9038 65.2599 56.6857 65.5407 56.5388V56.5102C65.4745 56.5102 65.4422 56.4724 65.4422 56.3965L65.4916 55.8561V55.6849L65.3931 54.1205L65.4428 53.779H65.3931L65.2444 53.836C64.9015 52.9069 64.3232 52.4423 63.5095 52.4421H63.4849C62.6043 52.4421 62.0093 52.9542 61.6999 53.9782C61.5705 54.4123 61.5034 54.8626 61.5008 55.3157H61.5012ZM61.4026 52.4711H61.4272C61.6258 52.4711 61.725 52.4048 61.7247 52.272H61.6504C61.5589 52.272 61.476 52.3384 61.4016 52.4713L61.4026 52.4711ZM63.2361 51.4471V51.7034H63.41C63.5007 51.7034 63.5586 51.6656 63.5833 51.5897V51.5327C63.5669 51.4759 63.5172 51.4475 63.4346 51.4475L63.2361 51.4471ZM65.1697 58.6152V58.6436L65.1947 58.6152H65.2442L65.4426 58.6722H65.492V58.5868L65.4426 58.5298H65.3185C65.2193 58.539 65.1696 58.5675 65.1695 58.6152H65.1697ZM65.5177 53.4374L65.7655 53.5511L66.1123 53.409V53.3806L65.7655 53.3236C65.6003 53.3383 65.5177 53.3763 65.5177 53.4374Z" fill="white"/>
<path d="M68.3134 52.1536C68.8169 52.2386 69.0687 52.4511 69.0688 52.7911C69.5208 53.4031 70.1357 54.4402 70.9135 55.9023C71.1951 56.3782 71.4692 56.8032 71.7359 57.1773V53.7601C71.7359 52.8082 71.7803 52.3321 71.8693 52.332C71.9876 52.2301 72.0987 52.1792 72.2027 52.1792H72.3139C72.6322 52.1792 72.8397 52.3662 72.9363 52.7401L72.8695 53.4031L72.9806 58.0443C72.9806 58.8052 72.9139 59.2557 72.7805 59.3958C72.5952 59.5999 72.3952 59.702 72.1804 59.702C71.884 59.702 71.6026 59.4809 71.336 59.0388C70.8061 58.2059 70.1764 57.0583 69.4468 55.5962V55.5197H69.5134V55.4942C69.3503 55.4942 69.1355 55.2307 68.8689 54.7037H68.8467L68.7798 55.3667L68.891 58.0443V58.1973C68.891 58.9327 68.7577 59.4087 68.4912 59.6255L68.2909 59.6763H68.1355C67.8318 59.6763 67.6613 59.4298 67.6241 58.9368V58.8603L67.7133 57.5343C67.654 56.5617 67.6243 55.4056 67.6241 54.0661L67.6466 52.6636C67.8576 52.4893 68.0205 52.3278 68.1355 52.1792L68.3134 52.1536ZM70.247 55.5197V55.5962L70.2914 55.6472C70.3026 55.5623 70.3247 55.5197 70.3582 55.5197H70.4025L70.5581 55.5707H70.5804V55.5453C70.5061 55.5453 70.4542 55.4518 70.4246 55.2648L70.247 55.5197Z" fill="white"/>
<path d="M46.6056 47.4102V23.9324L46.5039 23.9251C46.3572 24.7179 46.2219 25.5122 46.0623 26.3031C45.2476 30.3374 43.8307 34.2036 41.2059 37.7166C39.747 39.6684 37.9453 41.3575 35.4507 42.4744C35.2559 42.5617 35.0552 42.6402 34.8561 42.721C34.657 42.8018 34.4595 42.8787 34.1939 42.9854C35.7691 44.6105 37.3063 46.2064 39.5169 47.4151H26.7454C27.0824 46.4207 27.4705 45.427 27.7487 44.4129C28.0297 43.3878 28.0401 42.3387 27.9262 41.1734C27.2472 41.7362 26.7068 42.2646 26.069 42.6962C24.7509 43.5879 23.3758 44.4228 22.0379 45.2956C21.8562 45.4138 21.6886 45.6007 21.6286 45.7813C21.4759 46.2407 21.4013 46.7168 21.2651 47.1811C21.2304 47.2994 21.0831 47.3948 20.9875 47.5008C20.8889 47.3991 20.7312 47.3082 20.6993 47.1939C20.4919 46.4414 20.2914 45.6863 20.1429 44.9251C20.1187 44.7999 20.3269 44.5576 20.4885 44.5111C21.0129 44.3589 21.5279 44.4064 21.9344 44.7974C24.078 43.6409 26.0014 42.3023 27.6762 40.7282C27.7688 40.6411 27.7988 40.4739 27.7826 40.3505C27.7432 40.0451 27.6592 39.7437 27.5894 39.4227C37.0516 35.5074 43.3872 29.3942 46.5961 21.0833C47.0358 22.0647 47.4204 23.0285 47.8932 23.9616C51.0527 30.2029 56.2205 35.0064 63.3409 38.3997C63.9693 38.6992 64.6151 38.9768 65.2708 39.2337C65.5579 39.3462 65.6793 39.4752 65.5595 39.7171C65.245 40.3513 65.5319 40.8014 66.0961 41.2655C67.5994 42.5034 69.1901 43.6472 70.957 44.6241C71.0556 44.6785 71.1591 44.726 71.2744 44.784C71.686 44.4155 72.1982 44.3577 72.728 44.5079C72.8857 44.5527 73.0988 44.7745 73.0758 44.8859C72.9099 45.6875 72.6935 46.4828 72.4811 47.2771C72.4585 47.3619 72.3587 47.4328 72.2199 47.6006C72.0991 47.3971 71.9871 47.2684 71.9439 47.1257C71.7763 46.5693 71.7961 45.9162 71.4301 45.4752C71.0642 45.0341 70.2796 44.8378 69.7485 44.4671C68.3824 43.5133 67.0527 42.524 65.7156 41.5424C65.5951 41.4541 65.5263 41.3185 65.3698 41.2424C65.0646 43.4053 65.5121 45.4304 66.5892 47.4098L46.6056 47.4102Z" fill="white"/>
<path d="M43.9914 1.96216L42.3464 2.11515C42.3464 2.11515 41.7881 2.36887 41.602 2.91044C41.602 2.91044 41.4837 3.31656 41.602 3.48572C41.7203 3.65487 41.5823 3.44293 41.5823 3.44293C41.5823 3.44293 41.7037 3.62037 41.6698 3.72269C41.6229 3.8517 41.5625 3.97535 41.4894 4.09155C41.4894 4.09155 40.7742 5.09286 41.7398 6.13893C41.7398 6.13893 42.3298 6.79169 42.8832 6.95256L43.2588 7.40067C43.2588 7.40067 43.6479 8.75133 43.4463 9.55767C43.4463 9.55767 43.3455 11.8556 43.6276 12.3798C43.6641 12.4475 43.6903 12.496 43.7087 12.5291C43.8319 12.7534 43.5862 12.2795 43.5862 12.2795L44.555 12.0372C44.555 12.0372 44.2681 11.2385 44.334 10.723C44.334 10.723 44.597 9.79109 44.608 9.69232C44.6191 9.59355 44.6957 9.0782 44.608 8.74936C44.608 8.74936 45.5839 9.33055 45.7264 10.5586L45.836 10.9754L45.891 11.2385L46.8777 10.6244L46.6475 9.3414C46.6475 9.3414 46.5268 8.91378 46.2965 8.66163L45.244 7.12644C45.244 7.12644 45.2714 6.50661 45.1344 6.19216C45.1344 6.19216 44.9408 5.63581 45.0618 5.37794C45.0618 5.37794 45.2765 4.90616 45.2602 4.62878C45.2602 4.62878 45.5821 4.03733 45.7863 3.87331C45.8031 3.85923 45.8217 3.84756 45.8417 3.83861C46.0164 3.76724 45.9415 3.68089 45.8666 3.58133C45.8581 3.57009 45.8498 3.55866 45.8417 3.54683C45.7629 3.43189 45.615 3.24382 45.615 3.24382C45.615 3.24382 45.4865 3.02892 45.3735 3.22607C45.3688 3.23455 45.3641 3.24382 45.3595 3.25367C45.2643 3.46482 45.2046 3.34377 45.1854 3.25722C45.1829 3.24571 45.181 3.23406 45.1797 3.22233C45.173 3.15471 45.1841 2.83927 45.1253 2.69515C45.1182 2.67557 45.1073 2.6576 45.0932 2.64232C44.9986 2.54769 45.1563 2.46883 44.9039 2.40574C44.9039 2.40574 44.8233 2.31012 44.8389 2.20859L44.8702 2.10706C44.8702 2.10706 44.9262 2.08479 45.0122 2.11613L43.9914 1.96216Z" fill="white"/>
<path d="M43.984 1.88019C43.984 1.88019 44.0282 1.72996 44.0193 1.60615C44.0193 1.60615 43.8515 1.38534 43.8338 1.19096C43.8161 0.99657 43.8805 1.36287 43.8805 1.36287C43.8805 1.36287 43.7445 1.03186 43.8289 0.810856C43.8289 0.810856 43.9399 0.307143 44.3905 0.298272C44.3905 0.298272 45.009 0.280528 45.1415 0.475705C45.1415 0.475705 45.4597 0.678964 45.3889 0.899967C45.3181 1.12097 45.3426 0.939396 45.3426 0.939396C45.3426 0.939396 45.3372 1.14699 45.2982 1.27218C45.2982 1.27218 45.4039 1.49575 45.3991 1.57559C45.3972 1.61167 45.34 1.66234 45.2538 1.64657L45.2256 1.73745L45.134 1.7412L45.2148 1.82183C45.2148 1.82183 45.2513 1.84904 45.1965 1.88097C45.1965 1.88097 45.1261 1.88097 45.1419 1.96752C45.1419 1.96752 45.229 2.15225 44.9538 2.11361L44.8369 2.11893L43.944 1.97186L43.984 1.88019Z" fill="white"/>
<path d="M45.5728 3.27884C45.5728 3.27884 45.6005 3.06079 45.6333 2.99632C45.652 2.95946 45.7539 2.86069 45.7991 2.99632L45.9122 2.87567C45.9122 2.87567 45.8998 2.79898 45.9122 2.77709C45.9467 2.71795 46.0855 2.67852 46.1835 2.81475C46.1835 2.81475 46.3257 3.06296 46.3192 3.15404C46.316 3.19958 46.2289 3.31176 46.2289 3.31176L46.1534 3.40225L45.8243 3.61537" fill="white"/>
<path d="M45.8733 2.966L45.0494 2.58413L44.7941 2.40867L44.8136 2.33276L46.1189 2.88892" fill="white"/>
<path d="M46.1451 3.40133C46.1451 3.40133 46.3817 3.6105 46.2421 3.72584L46.3634 3.58645L46.4477 3.65171C46.4477 3.65171 46.2912 3.272 46.2667 3.24342C46.2423 3.21483 46.0856 3.24342 46.0856 3.24342L46.1451 3.40133Z" fill="white"/>
</svg>
